<?xml version="1.0" encoding="UTF-8"?>
<svg id="_Слой_1" data-name="Слой_1" xmlns="http://www.w3.org/2000/svg" version="1.1" viewBox="0 0 800 800">
  <!-- Generator: Adobe Illustrator 29.8.3, SVG Export Plug-In . SVG Version: 2.1.1 Build 3)  -->
  <defs>
    <style>
      .st0 {
        fill: #8fa896;
      }
    </style>
  </defs>
  <path class="st0" d="M110.52,459.37l24.34-5.71-24.34,5.71ZM110.52,277.47l24.34,5.71-24.34-5.71ZM626.31,277.47l24.34-5.71-24.34,5.71ZM626.31,459.37l24.34,5.71-24.34-5.71ZM459.37,626.31l-5.71-24.34,5.71,24.34ZM277.47,626.31l-5.71,24.34,5.71-24.34ZM277.47,110.52l-5.71-24.34,5.71,24.34ZM459.37,110.52l5.71-24.34-5.71,24.34ZM682.32,717.68c9.76,9.76,25.59,9.76,35.35,0s9.76-25.59,0-35.35l-35.35,35.35ZM134.86,453.66c-13.15-56.07-13.15-114.42,0-170.48l-48.68-11.42c-14.91,63.58-14.91,129.74,0,193.32l48.68-11.42ZM601.97,283.18c13.15,56.07,13.15,114.42,0,170.48l48.68,11.42c14.91-63.58,14.91-129.74,0-193.32l-48.68,11.42ZM453.66,601.97c-56.07,13.15-114.42,13.15-170.48,0l-11.42,48.68c63.58,14.91,129.74,14.91,193.32,0l-11.42-48.68ZM283.18,134.86c56.07-13.15,114.42-13.15,170.48,0l11.42-48.68c-63.58-14.91-129.74-14.91-193.32,0l11.42,48.68ZM283.18,601.97c-73.59-17.26-131.05-74.72-148.31-148.31l-48.68,11.42c21.6,92.08,93.49,163.97,185.57,185.57l11.42-48.68ZM465.08,650.65c92.08-21.6,163.97-93.49,185.57-185.57l-48.68-11.42c-17.26,73.59-74.72,131.05-148.31,148.31l11.42,48.68ZM453.66,134.86c73.59,17.26,131.05,74.72,148.31,148.31l48.68-11.42c-21.6-92.08-93.49-163.97-185.57-185.57l-11.42,48.68ZM271.76,86.18c-92.08,21.6-163.97,93.49-185.57,185.57l48.68,11.42c17.26-73.59,74.72-131.05,148.31-148.31l-11.42-48.68ZM560.16,595.52l122.16,122.16,35.35-35.35-122.16-122.16-35.36,35.36Z"/>
</svg>